<svg width="191" height="22" viewBox="0 0 191 22" fill="none" xmlns="http://www.w3.org/2000/svg">
<g id="Agency X logo">
<g id="Group">
<g id="Group_2">
<path id="Vector" d="M37.087 0C40.5554 0 43.0744 1.41051 44.9927 3.62422L43.6363 4.60374C42.1637 2.82101 39.761 1.64559 37.087 1.64559C32.1459 1.64559 28.3287 5.42654 28.3287 10.9706C28.3287 16.4559 32.1459 20.3348 37.087 20.3348C39.8966 20.3348 42.1056 18.9243 43.2682 17.7489V12.7142H34.568L35.285 11.049H45.0508V18.4737C43.1519 20.5699 40.381 22 37.087 22C31.1577 22 26.4298 17.5334 26.4298 10.9706C26.4298 4.42743 31.1577 0 37.087 0Z" fill="black"/>
</g>
<g id="Group_3">
<path id="Vector_2" d="M81.6534 3.25192V21.5885H79.8513V0.352539H81.6727L94.8489 18.4345V0.352539H96.6509V21.5885H94.8877L81.6534 3.25192Z" fill="black"/>
</g>
<g id="Group_4">
<path id="Vector_3" d="M106.94 10.9902C106.94 4.46661 111.629 0 117.52 0C120.93 0 123.449 1.48887 125.232 3.76135L123.72 4.74087C122.403 2.89938 120.097 1.64559 117.52 1.64559C112.637 1.64559 108.82 5.42654 108.82 10.9706C108.82 16.4559 112.637 20.2956 117.52 20.2956C120.097 20.2956 122.403 19.0614 123.72 17.2004L125.232 18.1603C123.372 20.4915 120.911 21.9412 117.52 21.9412C111.629 21.9804 106.94 17.5138 106.94 10.9902Z" fill="black"/>
</g>
<g id="Group_5">
<path id="Vector_4" d="M140.52 12.5182L132.168 0.352539H134.339L141.43 10.7942L148.522 0.352539H150.693L142.341 12.5182V21.5885H140.52V12.5182Z" fill="black"/>
</g>
<path id="Vector_5" d="M10.8316 0.352539H8.60325L0 21.5885H2.01518L9.70772 2.13526L14.7457 14.7123H8.50637L7.82818 16.3775H15.3076L17.4196 21.5885H19.4348L10.8316 0.352539Z" fill="black"/>
<path id="Vector_6" d="M69.4267 0.352539H55.3979V2.01772H69.4267V0.352539Z" fill="black"/>
<path id="Vector_7" d="M65.8226 9.521H55.3979V11.1666H65.1057L65.8226 9.521Z" fill="black"/>
<path id="Vector_8" d="M69.4267 19.9431H55.3979V21.6083H69.4267V19.9431Z" fill="black"/>
</g>
<g id="Group_6">
<path id="Vector_9" d="M179.021 11.95L171.484 21.6276H173.751L180.126 13.2625L179.021 11.95Z" fill="#CE9200"/>
<path id="Vector_10" d="M182.218 10.6767L190.202 0.352539H187.935L181.095 9.36411L174.293 0.352539H171.987L188.438 21.5885H190.667L182.218 10.6767Z" fill="black"/>
</g>
</g>
</svg>
