<svg width="32" height="32" viewBox="0 0 32 32" fill="none" xmlns="http://www.w3.org/2000/svg">
<g id="fb icon">
<circle id="Ellipse 5" cx="16" cy="16" r="16" fill="black"/>
<path id="fb icon_2" fill-rule="evenodd" clip-rule="evenodd" d="M13.8692 16.066V24.1829C13.8692 24.3149 13.9661 24.3809 14.063 24.3809H17.0331C17.1622 24.3809 17.2268 24.2819 17.2268 24.1829V15.934H19.3575C19.4544 15.934 19.5512 15.835 19.5512 15.736L19.745 13.2613C19.745 13.1293 19.6481 13.0303 19.5512 13.0303H17.2268V11.2816C17.2268 10.8526 17.5496 10.5227 17.9693 10.5227H19.6158C19.745 10.5227 19.8095 10.4237 19.8095 10.3247V7.81699C19.8095 7.71801 19.7127 7.61902 19.6158 7.61902H16.8394C15.1929 7.61902 13.8692 8.97185 13.8692 10.6546V13.0633H12.3842C12.2873 13.0303 12.1905 13.1293 12.1905 13.2283V15.703C12.1905 15.835 12.2873 15.901 12.3842 15.901H13.8692V16.066Z" fill="white"/>
</g>
</svg>
