<svg width="42" height="39" viewBox="0 0 42 39" fill="none" xmlns="http://www.w3.org/2000/svg">
<g id="icon campaign - active">
<path id="Vector" d="M18.5768 8.64773L17.4273 11.6545L18.0196 13.3002C18.9035 14.9453 18.0396 16.8854 16.1962 17.4714L16.099 17.4717C16.099 17.4717 13.551 13.6991 13.2519 12.3433C13.2422 10.5992 13.6142 7.5944 14.6725 5.65377L17.2891 4.29059" stroke="black" stroke-miterlimit="10"/>
<path id="Vector_2" d="M24.4572 8.71591L25.5431 11.7169L24.8718 13.3658C24.0057 14.9183 24.7946 16.9511 26.548 17.6249L26.6452 17.6247C26.6452 17.6247 29.3462 13.9359 29.6308 12.6755C29.8155 10.9309 29.5072 7.92799 28.5244 5.99258L25.9891 4.54557" stroke="black" stroke-miterlimit="10"/>
<path id="Vector_3" d="M25.9933 5.52372C25.9093 7.94799 23.971 9.89213 21.5341 9.80132C19.0972 9.7105 17.1372 7.7762 17.2212 5.35192C17.3051 2.92765 19.2434 0.983505 21.6803 1.07432C24.0193 1.06842 25.9797 3.09969 25.9933 5.52372Z" stroke="black" stroke-miterlimit="10"/>
<path id="Vector_4" d="M9.80219 32.7885L13.0172 32.2953L14.0822 30.9344C15.0486 29.3796 17.1927 29.1801 18.6623 30.4377L18.7603 30.5345C18.7603 30.5345 16.7354 34.6144 15.7652 35.4901C14.3081 36.464 11.4869 37.6353 9.24422 37.641L6.70038 36.0951" stroke="black" stroke-miterlimit="10"/>
<path id="Vector_5" d="M6.95627 27.7721L9.08769 25.3411L10.8416 25.1427C12.694 25.138 14.0498 23.4852 13.6495 21.6427L13.649 21.5457C13.649 21.5457 9.06387 21.0722 7.79856 21.4634C6.14489 22.1468 3.61969 23.8996 2.55804 25.8427L2.57482 28.8504" stroke="black" stroke-miterlimit="10"/>
<path id="Vector_6" d="M3.33693 28.0655C5.47444 26.8965 8.11004 27.6656 9.2914 29.7958C10.4728 31.9259 9.70773 34.5458 7.57022 35.7148C5.43271 36.8837 2.7971 36.1147 1.61574 33.9845C0.531842 31.8541 1.29687 29.2342 3.33693 28.0655Z" stroke="black" stroke-miterlimit="10"/>
<path id="Vector_7" d="M32.4441 33.1955L29.2234 32.6216L28.1433 31.2661C27.1596 29.7164 25.1099 29.3335 23.6544 30.5984L23.5569 30.5986C23.5569 30.5986 25.4327 34.7654 26.4126 35.636C27.7836 36.6997 30.6182 37.9537 32.8612 38.045L35.3881 36.5835" stroke="black" stroke-miterlimit="10"/>
<path id="Vector_8" d="M35.3627 28.2488L33.3986 25.7314L31.642 25.4448C29.789 25.3525 28.5118 23.6095 28.8915 21.7653L28.8909 21.6683C28.8909 21.6683 33.4718 21.3657 34.742 21.8475C36.3063 22.6197 38.7541 24.4567 39.9349 26.394L39.8536 29.3046" stroke="black" stroke-miterlimit="10"/>
<path id="Vector_9" d="M36.7652 36.7655C39.1873 36.7594 41.1398 34.8009 41.1264 32.3912C41.113 29.9814 39.1386 28.0328 36.7166 28.039C34.2945 28.0451 32.342 30.0035 32.3554 32.4133C32.3688 34.823 34.3432 36.7716 36.7652 36.7655Z" stroke="black" stroke-miterlimit="10"/>
<path id="Vector_10" d="M26.5014 35.6396C24.846 36.328 22.9939 36.7236 21.0414 36.6309C19.0895 36.6358 17.33 36.1516 15.6666 35.3739" stroke="black" stroke-miterlimit="10"/>
<path id="Vector_11" d="M29.5403 12.7628C32.3742 14.8878 34.2415 18.1782 34.6512 21.8599" stroke="black" stroke-miterlimit="10"/>
<path id="Vector_12" d="M7.91826 21.3729C8.48176 17.6884 10.5086 14.5818 13.3201 12.5393" stroke="black" stroke-miterlimit="10"/>
</g>
</svg>
