<svg width="44" height="42" viewBox="0 0 44 42" fill="none" xmlns="http://www.w3.org/2000/svg">
<g id="icon strategy">
<path id="Vector" d="M38.1164 22.5533C37.5303 27.7961 34.6001 32.3592 30.4001 35.0776" stroke="black" stroke-miterlimit="10"/>
<path id="Vector_2" d="M11.842 6.04849C14.6746 4.20383 17.9955 3.13586 21.6095 3.13586C24.8327 3.13586 27.8606 4.00965 30.4001 5.46596" stroke="black" stroke-miterlimit="10"/>
<path id="Vector_3" d="M11.8418 35.0777C7.64177 32.2621 4.71153 27.699 4.12549 22.4563" stroke="black" stroke-miterlimit="10"/>
<path id="Vector_4" d="M36.1627 19.6407C39.9388 19.6407 42.9999 16.598 42.9999 12.8446C42.9999 9.09119 39.9388 6.04846 36.1627 6.04846C32.3866 6.04846 29.3255 9.09119 29.3255 12.8446C29.3255 16.598 32.3866 19.6407 36.1627 19.6407Z" stroke="black" stroke-miterlimit="10"/>
<path id="Vector_5" d="M27.4697 29.3495H15.6511V41H27.4697V29.3495Z" stroke="black" stroke-miterlimit="10"/>
<path id="Vector_6" d="M7.83721 7.01941L14.6744 19.6408H1L7.83721 7.01941Z" stroke="black" stroke-miterlimit="10"/>
<path id="Vector_7" d="M16.7257 7.69903L11.842 6.04854L13.6002 1" stroke="black" stroke-miterlimit="10"/>
<path id="Vector_8" d="M33.8186 25.466L38.1162 22.5533L41.1442 26.9223" stroke="black" stroke-miterlimit="10"/>
<path id="Vector_9" d="M11.2559 29.9321L11.7443 35.0778L6.46988 35.5632" stroke="black" stroke-miterlimit="10"/>
</g>
</svg>
