<svg width="42" height="41" viewBox="0 0 42 41" fill="none" xmlns="http://www.w3.org/2000/svg">
<g id="icon creative design">
<path id="Vector" d="M1 28.8785V10.1869C1 9.2523 1.76373 8.50464 2.71838 8.50464H12.2649" stroke="black" stroke-miterlimit="10"/>
<path id="Vector_2" d="M41 31.4952V33.1775C41 34.1121 40.2363 34.8597 39.2816 34.8597H2.81382C1.85917 34.8597 1.09546 34.1121 1.09546 33.1775V31.4952H41Z" stroke="black" stroke-miterlimit="10"/>
<path id="Vector_3" d="M29.6396 8.50464H39.1862C40.1408 8.50464 40.9046 9.2523 40.9046 10.1869V28.8785" stroke="black" stroke-miterlimit="10"/>
<path id="Vector_4" d="M13.2196 40H28.7805" stroke="black" stroke-miterlimit="10"/>
<path id="Vector_5" d="M15.7972 40.0001L16.6564 34.8599" stroke="black" stroke-miterlimit="10"/>
<path id="Vector_6" d="M26.2029 40.0001L25.3438 34.8599" stroke="black" stroke-miterlimit="10"/>
<path id="Vector_7" d="M34.0309 23.8318H22.766" stroke="black" stroke-miterlimit="10"/>
<path id="Vector_8" d="M19.234 23.8318H7.96912" stroke="black" stroke-miterlimit="10"/>
<path id="Vector_9" d="M4.49085 25.4565H7.92761V22.0921H4.49085V25.4565Z" stroke="black" stroke-miterlimit="10"/>
<path id="Vector_10" d="M19.3136 25.4565H22.7504V22.0921H19.3136V25.4565Z" stroke="black" stroke-miterlimit="10"/>
<path id="Vector_11" d="M34.0408 25.5499H37.4775V22.1854H34.0408V25.5499Z" stroke="black" stroke-miterlimit="10"/>
<path id="Vector_12" d="M30.4987 28.8784C28.7803 26.2616 26.0118 24.3925 22.766 23.9252" stroke="black" stroke-miterlimit="10"/>
<path id="Vector_13" d="M19.2338 23.9252C15.988 24.3925 13.2195 26.2616 11.5011 28.8784" stroke="black" stroke-miterlimit="10"/>
<path id="Vector_14" d="M20.9524 11.0279C21.9014 11.0279 22.6708 10.2748 22.6708 9.3457C22.6708 8.41662 21.9014 7.66345 20.9524 7.66345C20.0033 7.66345 19.234 8.41662 19.234 9.3457C19.234 10.2748 20.0033 11.0279 20.9524 11.0279Z" stroke="black" stroke-miterlimit="10"/>
<path id="Vector_15" d="M24.4847 0V5.14019L27.0622 8.50467L21.9071 18.6916H20.9524H20.0932L14.9381 8.50467L17.5157 5.14019V0" stroke="black" stroke-miterlimit="10"/>
<path id="Vector_16" d="M20.9523 11.0281V18.6916" stroke="black" stroke-miterlimit="10"/>
<path id="Vector_17" d="M17.5155 2.52332H24.4845" stroke="black" stroke-miterlimit="10"/>
</g>
</svg>
