<svg width="32" height="32" viewBox="0 0 32 32" fill="none" xmlns="http://www.w3.org/2000/svg">
<g id="insta icon">
<circle id="Ellipse 8" cx="16" cy="16" r="16" fill="black"/>
<g id="insta icon_2">
<path id="Vector" d="M20.01 12.8866C20.5004 12.8866 20.8979 12.4883 20.8979 11.997C20.8979 11.5057 20.5004 11.1074 20.01 11.1074C19.5196 11.1074 19.1221 11.5057 19.1221 11.997C19.1221 12.4883 19.5196 12.8866 20.01 12.8866Z" fill="white"/>
<path id="Vector_2" d="M16.0574 12.2549C13.9951 12.2549 12.3052 13.948 12.3052 16.0142C12.3052 18.0804 13.9951 19.7735 16.0574 19.7735C18.1197 19.7735 19.8097 18.0804 19.8097 16.0142C19.8097 13.948 18.1197 12.2549 16.0574 12.2549ZM16.0574 18.4247C14.7398 18.4247 13.6514 17.3342 13.6514 16.0142C13.6514 14.6941 14.7398 13.6036 16.0574 13.6036C17.375 13.6036 18.4634 14.6941 18.4634 16.0142C18.4634 17.3342 17.375 18.4247 16.0574 18.4247Z" fill="white"/>
<g id="Group">
<path id="Vector_3" d="M19.0362 23.619H12.9639C10.4433 23.619 8.38098 21.5528 8.38098 19.0274V12.9724C8.38098 10.447 10.4433 8.38086 12.9639 8.38086H19.0362C21.5568 8.38086 23.6191 10.447 23.6191 12.9724V19.0561C23.5904 21.5815 21.5568 23.619 19.0362 23.619ZM12.9639 9.81571C11.2166 9.81571 9.81313 11.2219 9.81313 12.9724V19.0561C9.81313 20.778 11.2166 22.2128 12.9639 22.2128H19.0362C20.7548 22.2128 22.1869 20.8067 22.1869 19.0561V12.9724C22.1869 11.2506 20.7834 9.81571 19.0362 9.81571H12.9639Z" fill="white"/>
</g>
</g>
</g>
</svg>
