<svg width="32" height="32" viewBox="0 0 32 32" fill="none" xmlns="http://www.w3.org/2000/svg">
<g id="linkedin icon">
<circle id="Ellipse 6" cx="16" cy="16" r="16" fill="black"/>
<path id="linkedin" d="M12.4484 22.2402V14.0813H10.0007V22.2402H12.4484ZM12.4484 11.1675C12.4484 10.439 11.9685 9.90479 11.1526 9.90479C10.4327 9.90479 9.90475 10.439 9.90475 11.1675C9.90475 11.8959 10.3847 12.4301 11.1526 12.4301C11.9685 12.4787 12.4484 11.8959 12.4484 11.1675ZM16.5279 22.2402V17.578C16.5279 17.3352 16.5279 17.0923 16.6239 16.8981C16.8159 16.4124 17.2478 15.8782 18.0157 15.8782C19.0236 15.8782 19.5995 16.461 19.5995 17.578V22.2402H22.0952V17.4809C22.0952 14.9069 20.7514 13.7414 18.9756 13.7414C17.4878 13.7414 16.8639 14.567 16.4799 15.1498V14.0813H14.0322C14.0802 14.8584 14.0322 22.2888 14.0322 22.2888H16.5279V22.2402Z" fill="white"/>
</g>
</svg>
