<svg width="32" height="32" viewBox="0 0 32 32" fill="none" xmlns="http://www.w3.org/2000/svg">
<g id="twitter icon">
<circle id="Ellipse 7" cx="16" cy="16" r="16" fill="black"/>
<g id="twit icon">
<path id="Vector" d="M23.5761 11.3779C23.0823 11.5875 22.5577 11.7073 22.0331 11.7971C22.28 11.7672 22.6503 11.318 22.8046 11.1383C23.0206 10.8688 23.2058 10.5693 23.3292 10.2399C23.3292 10.21 23.3601 10.18 23.3292 10.1501C23.2983 10.1501 23.2675 10.1501 23.2366 10.1501C22.6503 10.4496 22.064 10.6592 21.416 10.8389C21.3543 10.8389 21.3234 10.8389 21.2925 10.8089C21.2308 10.749 21.2 10.6891 21.1383 10.6592C20.8605 10.4496 20.5828 10.2699 20.2434 10.1201C19.8113 9.97042 19.3176 9.88058 18.8547 9.91052C18.3919 9.94047 17.9598 10.0603 17.5587 10.2699C17.1575 10.4795 16.7872 10.749 16.5095 11.1084C16.2009 11.4677 15.9849 11.887 15.8923 12.3062C15.7998 12.7255 15.7998 13.1447 15.8615 13.5939C15.8615 13.6538 15.8615 13.6838 15.7998 13.6538C13.3002 13.2945 11.2327 12.426 9.53552 10.5394C9.47381 10.4496 9.41209 10.4496 9.35037 10.5394C8.60977 11.6175 8.98007 13.3544 9.90582 14.1928C10.0293 14.3126 10.1527 14.4324 10.307 14.5223C10.2453 14.5223 9.6281 14.4624 9.10351 14.1928C9.04179 14.133 8.98007 14.1629 8.98007 14.2527C8.98007 14.3725 8.98007 14.4624 9.01093 14.6121C9.16522 15.6902 9.93668 16.7083 10.9859 17.0976C11.1093 17.1575 11.2636 17.1875 11.387 17.2174C11.1402 17.2773 10.8933 17.3073 10.1835 17.2474C10.091 17.2174 10.0601 17.2773 10.091 17.3672C10.6156 18.7447 11.7573 19.1639 12.5905 19.4035C12.7139 19.4335 12.8065 19.4335 12.9299 19.4634C12.9299 19.4634 12.9299 19.4634 12.8991 19.4934C12.6214 19.9126 11.6339 20.2121 11.2019 20.3618C10.3687 20.6313 9.47381 20.781 8.60977 20.6912C8.45548 20.6613 8.45548 20.6613 8.39376 20.6912C8.36291 20.7211 8.39376 20.7511 8.42462 20.781C8.60977 20.9008 8.79492 20.9907 8.94921 21.0805C9.50466 21.35 10.091 21.5896 10.6773 21.7393C13.794 22.5778 17.3118 21.9489 19.6262 19.703C21.4777 17.9361 22.0949 15.4805 22.0949 13.0549C22.0949 12.965 22.2183 12.9052 22.28 12.8453C22.7429 12.4859 23.144 12.0667 23.4835 11.6175C23.5761 11.5276 23.5452 11.4078 23.5452 11.3779C23.6378 11.318 23.6378 11.3479 23.5761 11.3779Z" fill="white"/>
<path id="Vector_2" fill-rule="evenodd" clip-rule="evenodd" d="M13.4236 22.0685C13.4236 22.0385 13.7013 22.0685 13.4236 22.0685C13.4236 22.0385 13.4544 22.0685 13.4236 22.0685Z" fill="white"/>
</g>
</g>
</svg>
